<?xml version="1.0" encoding="UTF-8"?>
<svg version="1.1" xmlns="http://www.w3.org/2000/svg" width="500" height="500">
<path d="M0 0 C0.91394531 0.45890625 1.82789063 0.9178125 2.76953125 1.390625 C9.9942595 5.07174569 16.35263419 9.74976894 22.8125 14.609375 C24.83570308 16.12677731 26.8957416 17.59716107 29 19 C29 19.66 29 20.32 29 21 C29.66 21 30.32 21 31 21 C32.65625 22.71484375 32.65625 22.71484375 34.5 24.9375 C36.88926999 27.92045179 36.88926999 27.92045179 40 30 C40 30.66 40 31.32 40 32 C40.66 32 41.32 32 42 32 C44.44377952 34.65697495 46.49708854 37.64963057 48.625 40.5625 C49.25728516 41.42713867 49.88957031 42.29177734 50.54101562 43.18261719 C70.58589143 71.07069312 79.39559461 104.87627153 76 139 C75.93796387 139.70753418 75.87592773 140.41506836 75.81201172 141.14404297 C73.28511681 169.7929564 61.99012679 194.82370909 44 217 C43.34 217.99 42.68 218.98 42 220 C41.34 220 40.68 220 40 220 C40 220.66 40 221.32 40 222 C38.28515625 223.65625 38.28515625 223.65625 36.0625 225.5 C33.07954821 227.88926999 33.07954821 227.88926999 31 231 C30.34 231 29.68 231 29 231 C29 231.66 29 232.32 29 233 C27.53808594 234.30932617 27.53808594 234.30932617 25.484375 235.79296875 C24.35781494 236.61003296 24.35781494 236.61003296 23.20849609 237.44360352 C22.39719238 238.01908936 21.58588867 238.5945752 20.75 239.1875 C19.92967285 239.77394287 19.1093457 240.36038574 18.26416016 240.96459961 C-2.36172726 255.55556506 -23.97573147 264.22037731 -49.125 267.1875 C-50.18062134 267.31366699 -50.18062134 267.31366699 -51.25756836 267.44238281 C-61.68363544 268.54906701 -71.92898407 268.03518482 -82.3125 266.75 C-83.40481934 266.61505127 -84.49713867 266.48010254 -85.62255859 266.34106445 C-112.18194218 262.86815647 -135.33676481 251.7626869 -156 235 C-156.99 234.34 -157.98 233.68 -159 233 C-159 232.34 -159 231.68 -159 231 C-159.66 231 -160.32 231 -161 231 C-162.65625 229.28515625 -162.65625 229.28515625 -164.5 227.0625 C-166.88926999 224.07954821 -166.88926999 224.07954821 -170 222 C-170 221.34 -170 220.68 -170 220 C-170.66 220 -171.32 220 -172 220 C-195.40845709 192.68218755 -208.56317617 157.09151513 -207 121 C-204.75966466 92.41272433 -197.20587525 65.37192926 -180 42 C-179.34 42 -178.68 42 -178 42 C-177.7525 41.278125 -177.505 40.55625 -177.25 39.8125 C-175.87730408 36.72393418 -174.27646704 34.48988582 -172 32 C-171.34 32 -170.68 32 -170 32 C-169.773125 31.443125 -169.54625 30.88625 -169.3125 30.3125 C-167.62449964 27.33840412 -165.53323483 25.27991135 -163 23 C-162.34 23 -161.68 23 -161 23 C-161 22.34 -161 21.68 -161 21 C-160.34 21 -159.68 21 -159 21 C-159 20.34 -159 19.68 -159 19 C-117.92888219 -19.53414742 -48.79286157 -27.23903667 0 0 Z M-97 11 C-98.27746094 11.32742187 -99.55492187 11.65484375 -100.87109375 11.9921875 C-116.41824215 16.57767583 -130.7455748 24.96323827 -142.6640625 35.8828125 C-145 38 -145 38 -147 39 C-147 39.66 -147 40.32 -147 41 C-147.5465625 41.21140625 -148.093125 41.4228125 -148.65625 41.640625 C-163.88163171 50.47134639 -174.34031785 74.06968597 -179.04296875 90.203125 C-179.35878906 91.45609375 -179.67460937 92.7090625 -180 94 C-180.19029785 94.71736328 -180.3805957 95.43472656 -180.57666016 96.17382812 C-188.4838356 126.66833033 -184.08630417 160.02540386 -168.06640625 187.296875 C-167.71449219 187.85890625 -167.36257812 188.4209375 -167 189 C-166.34 189 -165.68 189 -165 189 C-164.7525 189.886875 -164.505 190.77375 -164.25 191.6875 C-162.95035375 195.13156256 -161.51270773 197.33024803 -159 200 C-158.34 200 -157.68 200 -157 200 C-156.731875 200.5775 -156.46375 201.155 -156.1875 201.75 C-154.97070811 204.05550043 -153.69666121 206.02056192 -152 208 C-151.34 208 -150.68 208 -150 208 C-149.67 208.99 -149.34 209.98 -149 211 C-148.34 211 -147.68 211 -147 211 C-147 211.66 -147 212.32 -147 213 C-145.26608049 214.60634015 -143.461909 216.1375287 -141.625 217.625 C-140.12839844 218.85089844 -140.12839844 218.85089844 -138.6015625 220.1015625 C-136.26750115 222.19648969 -136.26750115 222.19648969 -134 222 C-134 222.66 -134 223.32 -134 224 C-123.58909073 231.91229104 -109.51297068 237.5537563 -97 241 C-96.03562012 241.27287842 -96.03562012 241.27287842 -95.05175781 241.55126953 C-74.60477484 247.15831192 -53.35143421 246.71723482 -33 241 C-31.74703125 240.67257812 -30.4940625 240.34515625 -29.203125 240.0078125 C-13.61724481 235.42569751 0.71713032 227.06282222 12.6640625 216.1171875 C15 214 15 214 17 213 C17 212.34 17 211.68 17 211 C17.99 210.67 18.98 210.34 20 210 C21.52216957 208.32675367 22.97187505 206.58675868 24.375 204.8125 C26.86778651 201.67824726 29.35205463 198.56660177 32 195.5625 C33.81824989 193.23286733 34.66565542 191.89765306 35 189 C35.66 189 36.32 189 37 189 C52.73687536 158.93202475 59.55804293 127.34093032 50 94 C49.80744629 93.31873047 49.61489258 92.63746094 49.41650391 91.93554688 C45.87344349 79.72871216 40.56568578 67.300271 33 57 C32.34 57 31.68 57 31 57 C30.64615234 56.16855469 30.64615234 56.16855469 30.28515625 55.3203125 C28.6873545 52.43552758 26.68148991 50.28827968 24.4375 47.875 C20.09722222 43.19444444 20.09722222 43.19444444 19 41 C18.34 41 17.68 41 17 41 C17 40.34 17 39.68 17 39 C14.89154 37.1644701 12.77917552 35.44615034 10.5625 33.75 C9.59461548 33.00411621 9.59461548 33.00411621 8.60717773 32.24316406 C6.74567345 30.81844122 4.87530944 29.40648208 3 28 C1.80890625 27.1028125 1.80890625 27.1028125 0.59375 26.1875 C-27.36092294 6.404193 -64.53818168 2.42137158 -97 11 Z " fill="#0A0A0A" transform="translate(315,124)"/>
<path d="M0 0 C55.44 0 110.88 0 168 0 C168 4.95 168 9.9 168 15 C165.11584117 16.44207941 162.58278472 16.09394887 159.375 16.0625 C158.18648437 16.05347656 156.99796875 16.04445312 155.7734375 16.03515625 C154.85820312 16.02355469 153.94296875 16.01195312 153 16 C153.00222061 16.92263641 153.00444122 17.84527283 153.00672913 18.79586792 C153.02674059 27.47776905 153.04197852 36.15966248 153.05181217 44.84158134 C153.05703764 49.3053676 153.06412921 53.76913484 153.07543945 58.23291016 C153.08628024 62.53820102 153.09227938 66.84347356 153.09487724 71.14877701 C153.09672933 72.79386814 153.10034584 74.43895823 153.10573006 76.0840416 C153.11295628 78.38271018 153.11399027 80.68130241 153.11352539 82.97998047 C153.115746 84.2901413 153.11796661 85.60030212 153.12025452 86.95016479 C153 90 153 90 152 92 C146.39 92 140.78 92 135 92 C133.70411441 89.40822883 133.85682919 87.47467105 133.82421875 84.57421875 C133.52632405 68.85826066 133.06059409 56.36886878 124.171875 42.92578125 C123 41 123 41 123 39 C122.34 39 121.68 39 121 39 C119.64613064 37.34997172 118.31321858 35.6825613 117 34 C116.34 33.67 115.68 33.34 115 33 C115 32.34 115 31.68 115 31 C114.34 30.7525 113.68 30.505 113 30.25 C110.65956354 29.27481814 108.49082249 28.23220934 106.25 27.0625 C104.83742277 26.36663631 103.42070009 25.67912587 102 25 C101.37867188 24.69449219 100.75734375 24.38898438 100.1171875 24.07421875 C89.69756833 19.7633567 75.92300697 20.69498828 65.61328125 24.73046875 C59.45545202 27.72194035 50.16937126 32.66125747 47 39 C46.34 39 45.68 39 45 39 C44.731875 39.70511719 44.46375 40.41023438 44.1875 41.13671875 C42.52372165 45.14839483 40.46537998 48.93176839 38.4375 52.76953125 C34.74738279 61.06226748 34.63228655 68.97256758 34.4375 77.9375 C34.37788577 80.38422021 34.31431205 82.83084832 34.24609375 85.27734375 C34.22216553 86.35234131 34.1982373 87.42733887 34.17358398 88.53491211 C34 91 34 91 33 92 C30.13732433 92.07325168 27.299281 92.09238205 24.4375 92.0625 C23.63119141 92.05798828 22.82488281 92.05347656 21.99414062 92.04882812 C19.99606244 92.03700518 17.99802217 92.01906914 16 92 C14.50717607 89.01435214 14.88083023 86.31016282 14.88647461 82.97998047 C14.88632858 82.25792419 14.88618256 81.53586792 14.8860321 80.79193115 C14.88672993 78.40031959 14.89451625 76.00878549 14.90234375 73.6171875 C14.90420839 71.96094811 14.90563208 70.30470816 14.90663147 68.64846802 C14.91045301 64.28532392 14.92028022 59.922213 14.93133545 55.55908203 C14.94155736 51.10840301 14.94613076 46.65771863 14.95117188 42.20703125 C14.9619028 33.47133892 14.97897488 24.73567359 15 16 C13.62714844 16.01740234 13.62714844 16.01740234 12.2265625 16.03515625 C10.44378906 16.04869141 10.44378906 16.04869141 8.625 16.0625 C7.44164062 16.07410156 6.25828125 16.08570313 5.0390625 16.09765625 C2 16 2 16 0 15 C0 10.05 0 5.1 0 0 Z " fill="#090909" transform="translate(166,205)"/>
<path d="M0 0 C0.33 1.32 0.66 2.64 1 4 C0.45730469 4.47050781 -0.08539063 4.94101563 -0.64453125 5.42578125 C-1.35996094 6.04839844 -2.07539063 6.67101562 -2.8125 7.3125 C-3.52019531 7.92738281 -4.22789062 8.54226562 -4.95703125 9.17578125 C-6.70136739 10.73334335 -8.36778041 12.32658875 -10 14 C-10.66 13.67 -11.32 13.34 -12 13 C-10.625 11 -10.625 11 -9 9 C-8.34 9 -7.68 9 -7 9 C-6.773125 8.443125 -6.54625 7.88625 -6.3125 7.3125 C-4.64103234 4.36753316 -2.44723648 2.31843456 0 0 Z " fill="#525252" transform="translate(152,147)"/>
</svg>
